<svg xmlns="http://www.w3.org/2000/svg" fill="none" viewBox="0 0 120 120"><circle cx="60" cy="60" r="60" fill="#FF9500" fill-opacity=".15"/><path fill="#FFDBA8" d="M60 37.984c-1.919 0-3.387-1.468-3.387-3.387v-6.21C56.613 26.467 58.081 25 60 25c1.92 0 3.388 1.468 3.388 3.387v6.21c0 1.806-1.468 3.387-3.388 3.387Z"/><path fill="#FF9500" d="M60 95c-1.919 0-3.387-1.468-3.387-3.388v-6.21c0-1.919 1.468-3.386 3.387-3.386 1.92 0 3.388 1.467 3.388 3.387v6.21c0 1.919-1.468 3.386-3.388 3.386Z"/><path fill="#FFE3BC" d="M47.242 41.37c-1.129 0-2.258-.564-2.935-1.693l-3.049-5.306c-.903-1.581-.339-3.726 1.242-4.63 1.58-.903 3.726-.338 4.63 1.242l3.048 5.307c.903 1.58.338 3.726-1.242 4.629-.452.226-1.13.452-1.694.452Z"/><path fill="#FF9500" fill-opacity=".8" d="M75.806 90.71c-1.129 0-2.257-.564-2.935-1.693l-3.048-5.306c-.904-1.581-.339-3.726 1.242-4.63 1.58-.903 3.725-.338 4.629 1.242l3.048 5.307c.903 1.58.339 3.726-1.242 4.629a3.186 3.186 0 0 1-1.694.451Z"/><path fill="#FFEBCE" d="M37.983 50.628a3.186 3.186 0 0 1-1.693-.451l-5.306-3.049c-1.581-.903-2.146-3.048-1.242-4.629.903-1.58 3.048-2.145 4.629-1.242l5.306 3.049c1.58.903 2.145 3.048 1.242 4.629-.677 1.129-1.806 1.693-2.935 1.693Z"/><path fill="#FFB144" d="M87.435 79.193a3.185 3.185 0 0 1-1.693-.452l-5.42-3.048c-1.58-.904-2.145-3.049-1.242-4.63.904-1.58 3.049-2.145 4.63-1.241l5.306 3.048c1.58.903 2.145 3.048 1.242 4.63-.565 1.128-1.694 1.693-2.823 1.693Z"/><path fill="#FFEDD3" d="M34.597 63.388h-6.21C26.467 63.388 25 61.92 25 60c0-1.919 1.468-3.387 3.387-3.387h6.21c1.92 0 3.387 1.468 3.387 3.387 0 1.92-1.58 3.388-3.387 3.388Z"/><path fill="#FEBC5E" d="M91.613 63.388h-6.21c-1.919 0-3.386-1.468-3.386-3.388 0-1.919 1.467-3.387 3.387-3.387h6.21C93.532 56.613 95 58.081 95 60c0 1.92-1.467 3.388-3.387 3.388Z"/><path fill="#FF9500" d="M32.565 79.193c-1.13 0-2.258-.565-2.936-1.694-.903-1.58-.338-3.726 1.242-4.629l5.307-3.048c1.58-.904 3.726-.339 4.629 1.242.903 1.58.338 3.725-1.242 4.629l-5.307 3.048c-.451.339-1.016.452-1.693.452Z"/><path fill="#FFC067" d="M82.016 50.628c-1.13 0-2.258-.564-2.936-1.693-.903-1.581-.338-3.726 1.242-4.63l5.307-3.048c1.58-.903 3.726-.338 4.629 1.242.903 1.58.339 3.726-1.242 4.63l-5.306 3.048a3.186 3.186 0 0 1-1.694.451Z"/><path fill="#FF9500" d="M44.194 90.71a3.187 3.187 0 0 1-1.694-.451c-1.58-.903-2.145-3.049-1.242-4.63l3.049-5.306c.903-1.58 3.048-2.145 4.629-1.241 1.58.903 2.145 3.048 1.242 4.629l-3.049 5.306c-.677 1.129-1.806 1.694-2.935 1.694Z"/><path fill="#FFC26C" d="M72.758 41.37a3.186 3.186 0 0 1-1.693-.451c-1.581-.903-2.146-3.048-1.242-4.629l3.048-5.306c.903-1.581 3.048-2.146 4.63-1.242 1.58.903 2.144 3.048 1.241 4.629l-3.048 5.306c-.678 1.016-1.807 1.694-2.936 1.694Z"/></svg>