<svg xmlns="http://www.w3.org/2000/svg" fill="none" viewBox="0 0 12 13"><g clip-path="url(#a)"><path fill="currentColor" d="M11.008 5.714a1.72 1.72 0 0 0-.277-1.536 1.72 1.72 0 0 0-.278-1.536A1.722 1.722 0 0 0 9.477.56a.885.885 0 0 0-.355-.073h-8.05a.428.428 0 0 0-.429.429v4.875c0 .237.192.428.429.428h1.731l1.15 4.163c.184.67.8 1.14 1.497 1.14.398 0 .769-.158 1.043-.448.275-.288.415-.665.395-1.063l-.08-1.646h3.213c.162 0 .32-.043.46-.125.54-.314.876-.885.876-1.486 0-.38-.124-.743-.35-1.04Zm-9.4-.46V1.452h1.084v3.804H1.607Zm8.4 2.149H5.796l.128 2.657a.476.476 0 0 1-.478.498.593.593 0 0 1-.565-.432L3.549 5.298V1.45h5.564a.761.761 0 0 1 .357 1.06l-.186.34.293.254a.76.76 0 0 1 .17.942l-.186.34.294.254a.76.76 0 0 1 .17.942l-.188.341.294.255a.76.76 0 0 1 .262.576.775.775 0 0 1-.386.648Z"/></g><defs><clipPath id="a"><path fill="#fff" d="M0 0h12v12H0z" transform="translate(0 .002)"/></clipPath></defs></svg>