<svg width="1em" height="1em" viewBox="0 0 18 14" fill="none" xmlns="http://www.w3.org/2000/svg">
<path d="M16.8243 5.02898C15.7476 3.27546 13.2985 0.333496 9.00008 0.333496C4.70167 0.333496 2.25258 3.27546 1.1759 5.02898C0.843053 5.56733 0.666748 6.18774 0.666748 6.82068C0.666748 7.45361 0.843053 8.07403 1.1759 8.61237C2.25258 10.3659 4.70167 13.3079 9.00008 13.3079C13.2985 13.3079 15.7476 10.3659 16.8243 8.61237C17.1571 8.07403 17.3334 7.45361 17.3334 6.82068C17.3334 6.18774 17.1571 5.56733 16.8243 5.02898ZM15.6407 7.88556C14.716 9.38917 12.623 11.9195 9.00008 11.9195C5.37712 11.9195 3.28414 9.38917 2.35949 7.88556C2.16174 7.56557 2.05699 7.19684 2.05699 6.82068C2.05699 6.44451 2.16174 6.07578 2.35949 5.75579C3.28414 4.25218 5.37712 1.72187 9.00008 1.72187C12.623 1.72187 14.716 4.24941 15.6407 5.75579C15.8384 6.07578 15.9432 6.44451 15.9432 6.82068C15.9432 7.19684 15.8384 7.56557 15.6407 7.88556Z" fill="currentColor"/>
<path d="M8.99999 3.34961C8.3135 3.34961 7.64243 3.55318 7.07164 3.93457C6.50085 4.31596 6.05597 4.85805 5.79326 5.49228C5.53056 6.12651 5.46182 6.8244 5.59575 7.49769C5.72967 8.17099 6.06025 8.78945 6.54567 9.27487C7.03109 9.76029 7.64955 10.0909 8.32284 10.2248C8.99614 10.3587 9.69403 10.29 10.3283 10.0273C10.9625 9.76457 11.5046 9.31969 11.886 8.74889C12.2674 8.1781 12.4709 7.50703 12.4709 6.82055C12.4698 5.90033 12.1038 5.01813 11.4531 4.36744C10.8024 3.71675 9.9202 3.35071 8.99999 3.34961ZM8.99999 8.90311C8.5881 8.90311 8.18546 8.78097 7.84298 8.55213C7.50051 8.3233 7.23358 7.99805 7.07595 7.61751C6.91833 7.23697 6.87709 6.81824 6.95744 6.41426C7.0378 6.01028 7.23615 5.6392 7.5274 5.34795C7.81865 5.0567 8.18973 4.85836 8.5937 4.778C8.99768 4.69764 9.41641 4.73889 9.79695 4.89651C10.1775 5.05413 10.5027 5.32106 10.7316 5.66354C10.9604 6.00601 11.0826 6.40865 11.0826 6.82055C11.0826 7.37288 10.8631 7.90258 10.4726 8.29314C10.082 8.6837 9.55232 8.90311 8.99999 8.90311Z" fill="currentColor"/>
</svg>
