<svg width="24" height="24" viewBox="0 0 24 24" fill="none" xmlns="http://www.w3.org/2000/svg">
    <path d="M18.667 2H5.333A3.333 3.333 0 0 0 2 5.333v10a3.334 3.334 0 0 0 3.333 3.334H7.75l3.71 3.136a.834.834 0 0 0 1.076 0l3.714-3.136h2.417A3.334 3.334 0 0 0 22 15.333v-10A3.333 3.333 0 0 0 18.667 2zM7.833 6.167H12a.833.833 0 1 1 0 1.666H7.833a.833.833 0 1 1 0-1.666zm8.334 8.333H7.833a.833.833 0 1 1 0-1.666h8.334a.833.833 0 0 1 0 1.666zm0-3.333H7.833a.833.833 0 1 1 0-1.667h8.334a.833.833 0 0 1 0 1.667z" fill="#3FC1D1"/>
</svg>
