<svg width="101" height="111" viewBox="0 0 101 111" fill="none" xmlns="http://www.w3.org/2000/svg">
<circle cx="36.5" cy="36.5" r="29" fill="#E0E0E0" stroke="#499FB6" stroke-width="15"/>
<g clip-path="url(#clip0_159512_27168)">
<path d="M55.9983 57.5216L51.4617 48.4027C50.6865 46.8444 49.324 45.6579 47.6739 45.1042C46.0239 44.5505 44.2215 44.6749 42.6632 45.4502C41.1049 46.2254 39.9183 47.5879 39.3646 49.238C38.8109 50.888 38.9354 52.6904 39.7106 54.2487L48.6299 72.1776L45.0019 74.9878C43.8901 75.8498 43.1416 77.097 42.9041 78.4836C42.6667 79.8702 42.9574 81.2955 43.7189 82.4783L50.0652 92.3303C50.8773 93.5893 51.9794 94.6353 53.279 95.3807L61.6814 100.206C62.4844 100.667 63.3889 100.922 64.3144 100.95C65.24 100.978 66.1581 100.776 66.9872 100.364L88.4247 89.6992C89.3123 89.2573 90.0672 88.5886 90.6132 87.761C91.1591 86.9333 91.4766 85.9761 91.5334 84.9862L92.1399 74.4606C92.246 72.6206 91.9634 70.7789 91.3106 69.0554L87.6856 59.4872C87.3145 58.5073 86.7423 57.616 86.0057 56.8708C85.2691 56.1255 84.3845 55.5429 83.409 55.1605C82.4334 54.778 81.3886 54.6043 80.3418 54.6503C79.295 54.6964 78.2694 54.9613 77.3313 55.428L75.3806 56.3985C75.0295 56.2185 74.6731 56.0495 74.3116 55.8915C73.2878 55.4417 71.6506 54.8363 70.1611 54.9574C68.6951 55.0752 67.1002 55.9273 66.0928 56.529L65.6696 56.7898C64.857 56.0526 63.8131 55.6212 62.7171 55.5696C61.7231 55.5084 60.7255 55.598 59.7583 55.8354C58.6139 56.145 57.1802 56.875 56.1561 57.4347L55.9983 57.5216Z" fill="white"/>
</g>
<defs>
<clipPath id="clip0_159512_27168">
<rect width="60" height="60" fill="white" transform="translate(20 56.7246) rotate(-26.4496)"/>
</clipPath>
</defs>
</svg>
