<svg width="81" height="81" viewBox="0 0 81 81" fill="none" xmlns="http://www.w3.org/2000/svg">
<g clip-path="url(#clip0_159512_27170)">
<path d="M35.9983 27.5216L31.4617 18.4027C30.6865 16.8444 29.324 15.6579 27.6739 15.1042C26.0239 14.5505 24.2215 14.6749 22.6632 15.4502C21.1049 16.2254 19.9183 17.5879 19.3646 19.238C18.8109 20.888 18.9354 22.6904 19.7106 24.2487L28.6299 42.1776L25.0019 44.9878C23.8901 45.8498 23.1416 47.097 22.9041 48.4836C22.6667 49.8702 22.9574 51.2955 23.7189 52.4783L30.0652 62.3303C30.8773 63.5893 31.9794 64.6353 33.279 65.3807L41.6814 70.2057C42.4844 70.6668 43.3889 70.9225 44.3144 70.9501C45.24 70.9777 46.1581 70.7764 46.9872 70.364L68.4247 59.6992C69.3123 59.2573 70.0672 58.5886 70.6132 57.761C71.1591 56.9333 71.4766 55.9761 71.5334 54.9862L72.1399 44.4606C72.246 42.6206 71.9634 40.7789 71.3106 39.0554L67.6856 29.4872C67.3145 28.5073 66.7423 27.616 66.0057 26.8708C65.2691 26.1255 64.3845 25.5429 63.409 25.1605C62.4334 24.778 61.3886 24.6043 60.3418 24.6503C59.295 24.6964 58.2694 24.9613 57.3313 25.428L55.3806 26.3985C55.0295 26.2185 54.6731 26.0495 54.3116 25.8915C53.2878 25.4417 51.6506 24.8363 50.1611 24.9574C48.6951 25.0752 47.1002 25.9273 46.0928 26.529L45.6696 26.7898C44.857 26.0526 43.8131 25.6212 42.7171 25.5696C41.7231 25.5084 40.7255 25.598 39.7583 25.8354C38.6139 26.145 37.1802 26.875 36.1561 27.4347L35.9983 27.5216Z" fill="white"/>
</g>
<defs>
<clipPath id="clip0_159512_27170">
<rect width="60" height="60" fill="white" transform="translate(0 26.7246) rotate(-26.4496)"/>
</clipPath>
</defs>
</svg>
