<svg viewBox="0 0 2925 609" xmlns="http://www.w3.org/2000/svg" xml:space="preserve" style="fill-rule:evenodd;clip-rule:evenodd;stroke-linejoin:round;stroke-miterlimit:2"><text x="1156.81" y="529.55" style="font-family:'Phosphate-Inline','Phosphate';font-size:591.667px;fill:#fff">S<tspan x="1396.44px 1692.86px 2040.17px" y="529.55px 529.55px 529.55px">TYL</tspan>ER</text><path d="M0 569.317c0 22.996 18.67 41.666 41.667 41.666h1000c22.996 0 41.666-18.67 41.666-41.666v-500c0-22.997 22.997-41.667 0-41.667 0 0-361.111-48.611-458.333 0-97.222 48.611-97.222 320.833-166.667 320.833-69.444 0-61.291-294.164-166.666-320.833-235.819-59.681-250-4.167-250-4.167C18.67 23.483 0 46.32 0 69.317v500Z" style="fill:#fff"/><path d="M0 569.317c0 22.996 18.67 41.666 41.667 41.666h1041.67c15.114 0 28.359-8.064 35.664-20.121a41.454 41.454 0 0 0 6.003-21.545v-500c0-19.586-13.543-36.034-31.767-40.482-3.173-.774-23.156-5.352-26.566-5.352 0 0-261.111-44.444-358.334 4.167-97.222 48.611-180.555 487.5-250 487.5-69.444 0-152.777-438.889-250-487.5-97.222-48.611-166.666-12.5-166.666-12.5C16.498 29.331.004 42.154.004 65.15v504.167Z" style="fill:#0d6070"/><circle cx="166.203" cy="295.314" r="83.333" style="fill:#fffcfc"/><path style="fill:#ebebeb" d="M82.304 421.696h166.667v25H82.304z"/><g><path d="M837.199 389.219c15.777 0 31.149-1.618 46.116-4.854l57.645 97.087h18.811l-60.679-101.941c21.844-7.686 39.239-19.519 52.184-35.498 12.945-15.978 19.417-36.71 19.417-62.196 0-17.799-3.438-33.373-10.315-46.723-6.877-13.349-16.282-24.575-28.216-33.677-11.934-9.101-25.991-15.978-42.172-20.63-16.181-4.652-33.778-6.979-52.791-6.979h-65.533v307.644h15.776v-92.233h49.757ZM710.987 125.265h139.562c25.889 0 49.858 3.439 71.904 10.316 22.047 6.877 41.161 16.99 57.342 30.339 16.181 13.35 28.823 29.834 37.925 49.454 9.101 19.619 13.652 42.172 13.652 67.657 0 20.226-2.831 37.419-8.495 51.577-5.663 14.159-11.933 25.89-18.81 35.194-8.091 10.518-17.193 19.417-27.306 26.699l75.849 133.494H900.912l-60.679-102.548v102.548H710.987v-404.73Z" style="fill:#fff;fill-rule:nonzero"/><circle cx="866.771" cy="279.746" r="80.905" style="fill:#fffcfc"/></g></svg>