<svg width="1em" height="1em" viewBox="0 0 17 17" fill="none" xmlns="http://www.w3.org/2000/svg">
    <path d="M14.907 6.614a1.766 1.766 0 0 0-1.704-1.237h-2.428l-.737-2.298a1.793 1.793 0 0 0-3.415 0l-.738 2.298H3.458a1.793 1.793 0 0 0-1.056 3.241l1.976 1.445-.752 2.326a1.766 1.766 0 0 0 .658 2.008 1.766 1.766 0 0 0 2.112-.01l1.934-1.424 1.935 1.422a1.793 1.793 0 0 0 2.769-1.996l-.752-2.326 1.979-1.445a1.766 1.766 0 0 0 .646-2.004zm-1.302 1.107-2.303 1.683a.555.555 0 0 0-.2.62l.874 2.706a.682.682 0 0 1-1.053.758L8.66 11.821a.556.556 0 0 0-.658 0l-2.264 1.667a.683.683 0 0 1-1.056-.758l.878-2.706a.556.556 0 0 0-.201-.62L3.055 7.72a.682.682 0 0 1 .403-1.232H6.29a.556.556 0 0 0 .53-.386l.86-2.684a.682.682 0 0 1 1.299 0l.86 2.684a.556.556 0 0 0 .53.386h2.834a.682.682 0 0 1 .402 1.232h-.001z" fill="currentColor"/>
</svg>
