<svg width="375" height="683" fill="none" xmlns="http://www.w3.org/2000/svg"><path fill="#369CA5" d="M0 0h375v631H0z"/><mask id="a" style="mask-type:alpha" maskUnits="userSpaceOnUse" x="0" y="628" width="375" height="55"><path fill="#DD2929" d="M0 628h375v55H0z"/></mask><g clip-path="url(#b)" mask="url(#a)"><path opacity=".1" d="M-403.914-14.092h836.822v701.709s-143.772-40.035-236.809-38.088c-154.243 3.229-225.471 68.745-379.102 38.088-23.319-4.654-70.395-40.732-96.5-54.617-69.973-37.218-124.411 43.642-124.411 43.642V-14.092Z" fill="#0300D4"/><path d="M-414.051-16h857.098v706.575s-147.255-58.787-242.547-56.88C42.52 636.856-52.501 730.5-208.501 675.5c-84.399-29.756-205.55 15.075-205.55 15.075V-16Z" fill="#369CA5"/><path opacity=".1" fill-rule="evenodd" clip-rule="evenodd" d="M-64.627 281.689C-194.17 229.086-304 86.829-304 86.829v596.193-491.655s147.828 149.002 413.07 149.002c161.546 0 325.971-71.759 465.243-132.541 89.396-39.015 168.43-73.508 229.687-81.596 156.69-20.689 332 46.278 332 46.278V72.24S970.69-18.01 814 3.787c-59.031 8.211-145.955 58.941-244.266 116.317-118.784 69.324-254.19 148.349-377.105 173.799-84.296 17.453-177.497 20.173-257.256-12.214Z" fill="#FEFEFE"/></g><defs><clipPath id="b"><path fill="#fff" transform="translate(0 -16)" d="M0 0h375v699H0z"/></clipPath></defs></svg>