<svg width="1em" height="1em" viewBox="0 0 100 100" fill="none" xmlns="http://www.w3.org/2000/svg"><rect width="100" height="100" rx="50" fill="#B7EDF0"/><g clip-path="url(#a)"><path d="M62.411 20H37.59a5.975 5.975 0 0 0-5.969 5.968v48.064A5.975 5.975 0 0 0 37.59 80H62.41a5.975 5.975 0 0 0 5.969-5.968V25.969A5.975 5.975 0 0 0 62.41 20Zm3.625 54.031a3.629 3.629 0 0 1-3.625 3.625H37.59a3.629 3.629 0 0 1-3.625-3.625V25.968a3.629 3.629 0 0 1 3.625-3.624H62.41a3.629 3.629 0 0 1 3.625 3.624v48.063Z" fill="#434343"/><path d="M60.455 70.196h-20.91a1.172 1.172 0 0 0 0 2.344h20.91a1.172 1.172 0 0 0 0-2.344ZM42.567 27.061h8.019a1.172 1.172 0 1 0 0-2.344h-8.019a1.172 1.172 0 0 0 0 2.344ZM55.051 27.061h2.382a1.172 1.172 0 1 0 0-2.344H55.05a1.172 1.172 0 0 0 0 2.344Z" fill="#434343"/><path d="M60.492 43.883 49.746 38 39 43.883l.023.011-.023-.011v12.914l10.746 5.812 10.746-5.812V43.883l-.047.023.047-.023Z" fill="#369CA5"/></g><defs><clipPath id="a"><path fill="#fff" transform="translate(20 20)" d="M0 0h60v60H0z"/></clipPath></defs></svg>