<svg width="1em" height="1em" viewBox="0 0 100 100" xmlns="http://www.w3.org/2000/svg"><rect width="100" height="100" rx="50" fill="#B7EDF0"/><path d="m49.027 48.5-10.746-5.883L27.535 48.5l.024.012-.024-.012v12.914l10.746 5.813 10.746-5.813V48.5l-.047.023.047-.023Z" fill="#369CA5"/><path d="M76.074 22.648H23.926A3.936 3.936 0 0 0 20 26.586v46.84a3.926 3.926 0 0 0 3.926 3.926h52.137a3.926 3.926 0 0 0 3.925-3.926v-46.84a3.919 3.919 0 0 0-3.914-3.938Zm-53.73 3.938c0-.879.715-1.582 1.582-1.582h52.137c.878 0 1.581.715 1.581 1.582v5.918h-55.3v-5.918Zm55.312 46.828c0 .879-.715 1.582-1.582 1.582H23.926a1.583 1.583 0 0 1-1.582-1.582V34.848h55.312v38.566Z" fill="#434343"/><path d="M72.125 27.57h-.434c-.644 0-1.172.528-1.172 1.172 0 .645.528 1.172 1.172 1.172h.434c.644 0 1.172-.527 1.172-1.172 0-.644-.516-1.172-1.172-1.172ZM64.86 27.57h-.434c-.645 0-1.172.528-1.172 1.172 0 .645.527 1.172 1.172 1.172h.433c.645 0 1.172-.527 1.172-1.172 0-.644-.527-1.172-1.172-1.172ZM57.582 27.57h-.434c-.644 0-1.171.528-1.171 1.172 0 .645.527 1.172 1.171 1.172h.434c.645 0 1.172-.527 1.172-1.172 0-.644-.516-1.172-1.172-1.172ZM36.113 27.57h-8.238c-.645 0-1.172.528-1.172 1.172 0 .645.527 1.172 1.172 1.172h8.238c.645 0 1.172-.527 1.172-1.172 0-.644-.527-1.172-1.172-1.172ZM55.473 54.91h16.992c.644 0 1.172-.527 1.172-1.172V48.5c0-.645-.528-1.172-1.172-1.172H55.473c-.645 0-1.172.527-1.172 1.172v5.238c0 .645.515 1.172 1.172 1.172Zm1.172-5.238h14.648v2.894H56.644v-2.894ZM55.473 61.133h16.992c.644 0 1.172-.528 1.172-1.172 0-.645-.528-1.172-1.172-1.172H55.473c-.645 0-1.172.527-1.172 1.172 0 .645.515 1.172 1.172 1.172Z" fill="#434343"/></svg>