<svg width="1em" height="1em" viewBox="0 0 100 100" fill="none" xmlns="http://www.w3.org/2000/svg"><rect width="100" height="100" rx="50" fill="#B7EDF0"/><g clip-path="url(#a)"><path d="M44.98 74.122c0 .647.524 1.171 1.171 1.171h3.53a1.172 1.172 0 0 0 0-2.343h-3.53c-.647 0-1.172.525-1.172 1.172Z" fill="#434343"/><path d="M65.691 54.206 47.916 67.709 24.605 50l23.311-17.708 5.003 3.8a1.172 1.172 0 0 0 1.418-1.867l-5.712-4.338a1.171 1.171 0 0 0-1.417 0L32.615 40.972v-15.8c0-1.56 1.27-2.828 2.83-2.828h2.32l2.067 4.066c.2.393.603.64 1.044.64h14.12c.444 0 .85-.25 1.048-.647l2.03-4.06h2.315a2.832 2.832 0 0 1 2.829 2.83v4.236a1.172 1.172 0 0 0 2.343 0v-4.236A5.178 5.178 0 0 0 60.39 20H35.444a5.178 5.178 0 0 0-5.173 5.173v17.579l-8.313 6.315a1.172 1.172 0 0 0 0 1.866l8.313 6.315v17.58A5.178 5.178 0 0 0 35.444 80h24.944a5.178 5.178 0 0 0 5.173-5.173v-17.58l1.548-1.175a1.172 1.172 0 1 0-1.418-1.866Zm-11.42-29.5H41.596l-1.201-2.362h15.06l-1.182 2.363Zm8.947 50.121c0 1.56-1.27 2.83-2.83 2.83H35.445a2.832 2.832 0 0 1-2.829-2.83V59.03l14.593 11.084c.418.318.998.319 1.417 0l14.593-11.085v15.8Z" fill="#434343"/><path d="M40.273 53.736c0 .419.224.805.586 1.015l6.471 3.737c.36.21.822.205 1.172 0l6.473-3.737c.362-.21.586-.596.586-1.015v-3.168a1.172 1.172 0 0 0-2.344 0v2.491l-4.129 2.384v-4.766l3.956-2.283a1.172 1.172 0 0 0-1.171-2.03l-3.956 2.283-4.128-2.383 4.127-2.384 3.154 1.822a1.172 1.172 0 1 0 1.172-2.03l-3.74-2.16c-.362-.21-.809-.21-1.172 0l-6.48 3.743a1.177 1.177 0 0 0-.577 1.01v7.47Zm2.344-5.442 4.128 2.383v4.766l-4.128-2.383v-4.766Z" fill="#434343"/><path d="M78.31 44.61c1.248-7.694-3.978-14.943-11.672-16.19-7.695-1.248-14.943 3.979-16.19 11.673-1.248 7.694 3.979 14.943 11.673 16.19 7.694 1.247 14.943-3.979 16.19-11.673Z" fill="#369CA5"/><path d="M70.85 42.892c1.308-.468 2.242-1.684 2.242-3.106 0-1.827-1.54-3.313-3.434-3.313H67.52a1.175 1.175 0 0 0-1.224 1.172v8.237a1.172 1.172 0 0 0 2.344 0v-1.955l2.401 2.729a1.172 1.172 0 1 0 1.76-1.548l-1.95-2.216Zm-1.192-4.075c.591 0 1.09.444 1.09.969 0 .525-.499.968-1.09.968l-1.005.004-.007-1.941h1.012ZM56.293 46.977a1.172 1.172 0 0 0 1.512-.678l.483-1.268h3.351l.477 1.265a1.172 1.172 0 1 0 2.193-.828l-3.065-8.121a1.354 1.354 0 0 0-1.269-.874c-.554 0-1.047.332-1.257.844l-3.103 8.148c-.23.604.073 1.281.678 1.512Zm4.462-4.29H59.18l.791-2.076.784 2.076Z" fill="#fff"/></g><defs><clipPath id="a"><path fill="#fff" transform="translate(20 20)" d="M0 0h60v60H0z"/></clipPath></defs></svg>