<svg width="375" height="404" viewBox="0 0 375 404" fill="none" xmlns="http://www.w3.org/2000/svg">
<path opacity="0.2" d="M180.418 403.541C275.888 403.541 353.281 401.237 353.281 398.395C353.281 395.554 275.888 393.25 180.418 393.25C84.9482 393.25 7.55469 395.554 7.55469 398.395C7.55469 401.237 84.9482 403.541 180.418 403.541Z" fill="#0B2252"/>
<path d="M285.245 19.8635C287.664 17.4443 291.009 15.9458 294.705 15.9458H308.011C309.992 6.82877 318.103 0 327.816 0C337.528 0 345.639 6.82877 347.62 15.9458H351.195C354.891 15.9458 358.236 17.4443 360.655 19.8635C363.074 22.2827 364.573 25.6271 364.573 29.3236C364.573 33.4082 362.74 37.0685 359.852 39.5238C357.518 41.5052 354.494 42.7013 351.195 42.7013H294.71C291.013 42.7013 287.669 41.2028 285.25 38.7836C282.831 36.3645 281.332 33.02 281.332 29.3236C281.332 25.6271 282.831 22.2827 285.25 19.8635H285.245Z" fill="#E9F3FC"/>
<path d="M122.597 40.019C120.322 37.7442 117.181 36.336 113.71 36.336H101.208C99.3437 27.7696 91.7251 21.3516 82.599 21.3516C73.4729 21.3516 65.8543 27.7696 63.9903 36.336H60.6323C57.1615 36.336 54.0202 37.7442 51.7454 40.019C49.4707 42.2937 48.0625 45.4351 48.0625 48.9059C48.0625 52.7468 49.7821 56.1815 52.4992 58.4878C54.6927 60.3518 57.5316 61.4757 60.6368 61.4757H113.71C117.181 61.4757 120.322 60.0675 122.597 57.7927C124.872 55.518 126.28 52.3767 126.28 48.9059C126.28 45.4351 124.872 42.2937 122.597 40.019Z" fill="#E9F3FC"/>
<path d="M467.903 210.377V281.553C403.194 270.351 316.216 260.105 214.48 260.105C-10.0979 260.105 -186.238 310.014 -186.238 310.014C-199.309 282.072 -184.825 201.594 -150.735 182.755C-116.641 163.916 -87.0378 201.594 -60.1245 188.139C-33.211 174.68 -58.3958 55.716 -17.0621 48.0613C24.2671 40.4066 50.2914 116.945 100.805 116.945C151.319 116.945 143.669 40.4066 202.74 37.342C261.807 34.2819 260.25 115.704 295.78 115.704C331.309 115.704 316.907 83.0537 372.607 82.0923C428.311 81.131 443.675 197.333 467.528 210.178C467.654 210.246 467.776 210.313 467.903 210.372V210.377Z" fill="url(#paint0_linear_162688_43507)"/>
<path d="M316.587 121.797H58.9349C49.5798 121.797 41.9961 129.381 41.9961 138.736V291.438C41.9961 300.793 49.5798 308.376 58.9349 308.376H316.587C325.942 308.376 333.526 300.793 333.526 291.438V138.736C333.526 129.381 325.942 121.797 316.587 121.797Z" fill="white"/>
<path d="M319.972 310.001H55.5457C47.1779 310.001 40.3672 303.19 40.3672 294.822V135.35C40.3672 126.983 47.1734 120.172 55.5457 120.172H319.972C328.34 120.172 335.151 126.978 335.151 135.35V294.827C335.151 303.195 328.345 310.005 319.972 310.005V310.001ZM55.5457 123.422C48.9697 123.422 43.6168 128.774 43.6168 135.35V294.827C43.6168 301.403 48.9652 306.756 55.5457 306.756H319.972C326.548 306.756 331.901 301.407 331.901 294.827V135.35C331.901 128.774 326.553 123.422 319.972 123.422H55.5457Z" fill="#E3ECF5"/>
<path d="M162.381 176.644C168.763 169.852 177.523 166.453 188.662 166.453C198.967 166.453 207.217 169.36 213.414 175.173C219.611 180.986 222.712 188.411 222.712 197.456C222.712 202.93 221.588 207.376 219.34 210.784C217.092 214.191 212.484 219.206 205.525 225.818C200.46 230.625 197.161 234.691 195.636 238.022C194.106 241.353 193.343 246.277 193.343 252.785H179.55C179.55 245.397 180.43 239.444 182.186 234.921C183.941 230.403 187.85 225.222 193.912 219.382L200.235 213.262C202.13 211.506 203.67 209.673 204.852 207.76C206.996 204.402 208.07 200.913 208.07 197.298C208.07 192.234 206.526 187.842 203.439 184.123C200.352 180.404 195.252 178.545 188.13 178.545C179.32 178.545 173.227 181.749 169.851 188.154C167.95 191.719 166.872 196.86 166.605 203.576H152.812C152.812 192.414 156.004 183.442 162.385 176.644H162.381ZM179.238 265.649H194.661V281.766H179.238V265.649Z" fill="#58CFAA"/>
<path d="M307.449 146.992H24.9373C24.0392 146.992 23.3125 146.265 23.3125 145.367C23.3125 144.469 24.0392 143.742 24.9373 143.742H307.449C308.347 143.742 309.074 144.469 309.074 145.367C309.074 146.265 308.347 146.992 307.449 146.992Z" fill="#E3ECF5"/>
<path d="M60.6558 134.844C60.9461 133.055 59.7314 131.37 57.9427 131.079C56.1539 130.789 54.4684 132.004 54.1781 133.792C53.8877 135.581 55.1024 137.267 56.8912 137.557C58.68 137.847 60.3654 136.633 60.6558 134.844Z" fill="#E3ECF5"/>
<path d="M73.8204 135.048C74.2367 133.285 73.1444 131.517 71.3806 131.101C69.6169 130.685 67.8497 131.777 67.4334 133.541C67.0171 135.305 68.1095 137.072 69.8732 137.488C71.6369 137.904 73.4041 136.812 73.8204 135.048Z" fill="#E3ECF5"/>
<path d="M87.1441 134.844C87.4344 133.055 86.2197 131.37 84.431 131.079C82.6422 130.789 80.9567 132.004 80.6664 133.792C80.376 135.581 81.5907 137.267 83.3795 137.557C85.1682 137.847 86.8537 136.633 87.1441 134.844Z" fill="#E3ECF5"/>
<path d="M12.2965 237.245C8.50068 237.132 4.37994 235.796 4.47021 229.699C4.56047 223.601 8.98812 222.653 9.43946 218.09C9.8908 213.527 9.91338 209.28 12.2965 209.235C14.6795 209.19 13.172 211.14 14.2823 213.257C15.3926 215.373 17.541 218.077 17.1258 222.031C16.7106 225.984 19.5224 227.496 19.3735 230.728C19.2245 233.96 17.207 237.39 12.2965 237.241V237.245Z" fill="#DAEEFF"/>
<path d="M13.6977 221.678C13.63 221.614 13.5261 221.619 13.463 221.687C13.3998 221.754 13.4043 221.858 13.4675 221.921C13.4765 221.93 14.4559 222.914 14.3566 226.29C14.2709 229.206 12.7589 233.715 12.2804 235.078C11.8336 234.017 11.2514 232.844 10.764 231.86C10.4345 231.192 10.1501 230.619 9.99215 230.253C9.42797 228.926 10.2855 226.141 10.2946 226.114C10.3216 226.028 10.272 225.934 10.1862 225.907C10.1005 225.879 10.0057 225.929 9.97862 226.015C9.94252 226.132 9.07593 228.944 9.68524 230.384C9.84321 230.754 10.1321 231.336 10.4616 232.004C11.3507 233.801 12.6957 236.518 12.6776 237.574C12.6505 239.041 12.47 241.144 12.47 241.162C12.461 241.252 12.5287 241.333 12.619 241.342H12.6325C12.7183 241.342 12.7905 241.279 12.7995 241.193C12.7995 241.171 12.98 239.059 13.0071 237.583C13.0161 237.109 12.795 236.373 12.461 235.538C12.6776 234.938 14.5823 229.621 14.6816 226.299C14.7854 222.747 13.7338 221.723 13.6886 221.682L13.6977 221.678Z" fill="#6AC1FF"/>
<path d="M384.276 298.575C377.642 298.377 370.438 296.043 370.596 285.387C370.754 274.726 378.495 273.07 379.285 265.095C380.074 257.12 380.111 249.695 384.276 249.618C388.442 249.542 385.806 252.949 387.747 256.646C389.688 260.342 393.448 265.072 392.721 271.987C391.994 278.897 396.914 281.542 396.652 287.193C396.395 292.843 392.865 298.837 384.276 298.58V298.575Z" fill="#DAEEFF"/>
<path d="M23.2212 307.303C19.4525 308.287 5.17209 307.709 7.89818 300.663C10.9312 292.828 19.0282 299.679 22.499 304.021C21.1811 297.093 21.0006 290.034 21.0231 286.257C18.455 283.169 13.0299 263.572 23.7176 264.543C37.7182 265.815 25.3154 284.366 22.0883 286.473C22.0883 290.996 22.3907 299.95 24.4398 307.722C24.8731 302.785 29.8017 288.734 36.3461 293.69C45.8423 300.876 27.6714 309.55 24.9182 309.401C25.7848 312.236 26.9041 314.849 28.3664 316.939C29.4181 318.442 30.5825 320.184 31.7921 322.079C31.8147 322.102 31.8372 322.125 31.8553 322.147C32.4646 316.948 37.3165 303.593 43.7255 308.444C52.5899 315.151 37.3436 323.158 33.0378 324.07C35.7098 328.416 38.4629 333.381 40.5842 338.165C40.8821 333.467 50.0985 323.867 53.7588 329.36C55.7989 332.42 44.9983 342.394 41.4373 340.16C43.4683 345.12 44.6914 349.756 44.2671 353.141C44.1092 354.386 43.8835 355.858 43.6217 357.455C46.1447 354.666 55.2618 345.31 57.9744 352.549C60.2265 358.552 52.7027 362.037 49.5433 362.037C47.07 362.037 44.4432 359.694 43.4186 358.674C43.2742 359.536 43.1208 360.425 42.9628 361.333C41.69 368.721 40.1645 377.612 40.6113 382.961C42.7642 378.786 52.3823 361.396 57.9744 372.575C60.8404 378.307 52.7027 383.114 49.5433 384.17C46.9481 385.037 42.3083 384.256 40.7241 383.949C40.8144 384.554 40.9272 385.109 41.0852 385.583C43.1478 391.762 47.3047 398.04 47.3498 398.103C47.5123 398.347 47.4446 398.672 47.2054 398.834C47.1151 398.893 47.0158 398.925 46.912 398.925C46.7405 398.925 46.5735 398.843 46.4742 398.69C46.4381 398.636 43.3464 393.964 41.1303 388.666C38.648 388.354 29.1021 387.05 26.358 385.222C23.1941 383.114 17.5343 376.186 22.1425 373.627C29.2736 369.664 36.7478 380.194 40.02 385.669C38.8014 381.584 39.8801 373.41 41.1484 365.733C38.5983 366.496 30.2982 365.015 27.4096 363.088C24.2457 360.98 18.798 355.519 22.138 352.549C30.5148 345.102 39.3701 360.877 41.3244 364.663C41.523 363.467 41.7261 362.289 41.9247 361.152C42.4528 358.092 42.9492 355.199 43.2245 353.01C43.6172 349.868 42.4482 345.351 40.3585 340.282C38.6931 340.81 33.0649 342.363 26.8815 341.483C19.5021 340.426 15.7605 334.685 18.4505 331.995C23.0226 327.423 36.5402 336.897 40.0291 339.483C37.9033 334.496 34.9199 329.03 31.6522 323.817C27.3509 324.815 10.2226 324.449 12.5425 317.647C14.8578 310.855 23.6274 315.422 28.7817 319.408C28.3574 318.78 27.9332 318.157 27.5044 317.548C25.5546 314.763 24.187 311.144 23.2257 307.307L23.2212 307.303Z" fill="url(#paint1_linear_162688_43507)"/>
<path d="M53.7498 372.579C62.5961 369.041 64.758 382.581 65.2274 387.022C67.1772 380.546 68.0031 372.665 67.123 366.252C65.778 366.22 60.5605 365.972 56.9137 364.148C52.6982 362.041 50.0985 353.601 53.7498 352.553C59.888 350.798 65.2951 361.445 66.938 365.069C66.7935 364.252 66.622 363.458 66.4144 362.704C65.0694 357.771 64.0945 351.416 63.6748 345.17C62.0093 345.138 57.3696 344.975 54.8059 344.122C51.6421 343.066 46.2891 334.811 50.5904 333.584C56.5165 331.891 61.7566 340.39 63.5935 343.806C63.237 337.294 63.5078 331.02 64.6136 326.746C64.1396 324.868 63.237 320.883 63.237 317.773C63.237 313.558 68.1295 305.258 72.7241 309.342C81.1146 316.803 68.5402 325.518 65.5253 327.432C64.5052 331.638 64.2796 337.713 64.6452 344.019C66.5272 339.28 74.1413 322.214 83.2629 330.424C86.7653 333.579 79.0474 340.963 73.7757 343.071C69.5828 344.745 66.0082 345.102 64.7174 345.179C65.1416 351.317 66.1075 357.568 67.4344 362.433C67.6736 363.313 67.8677 364.248 68.0257 365.214C70.0251 361.183 79.3227 344.041 89.5862 351.502C93.8468 354.603 85.3707 362.041 81.1551 364.148C77.5354 365.958 70.1696 366.053 68.1566 366.044C69.0322 372.435 68.2423 380.257 66.3422 386.819C69.4384 382.134 78.4923 370.106 85.3707 377.851C89.4553 382.446 78.8849 386.336 75.8835 387.338C73.2432 388.218 67.5924 388.48 65.8006 388.543C64.3021 393.07 62.2621 396.825 59.8835 398.807C59.7842 398.888 59.6669 398.929 59.545 398.929C59.3916 398.929 59.2426 398.865 59.1388 398.739C58.9537 398.518 58.9808 398.184 59.2065 397.999C61.4768 396.108 63.422 392.524 64.8573 388.191C63.4852 387.618 59.4954 385.898 56.9092 384.174C53.7453 382.067 48.8528 374.538 53.7453 372.579H53.7498Z" fill="#F2BE3C"/>
<path d="M31.0945 398.923H79.0494C79.3427 398.923 79.5774 398.689 79.5774 398.395C79.5774 398.102 79.3427 397.867 79.0494 397.867H31.0945C30.8011 397.867 30.5664 398.102 30.5664 398.395C30.5664 398.689 30.8011 398.923 31.0945 398.923Z" fill="#14336A"/>
<path d="M14.2273 398.923H25.2941C25.5875 398.923 25.8222 398.689 25.8222 398.395C25.8222 398.102 25.5875 397.867 25.2941 397.867H14.2273C13.9339 397.867 13.6992 398.102 13.6992 398.395C13.6992 398.689 13.9339 398.923 14.2273 398.923Z" fill="#14336A"/>
<path d="M299.871 394.803H308.32V313.711H312.437V345.738H318.828V313.711H322.944V349.859H312.437V394.803H320.886C322.023 394.803 322.944 395.724 322.944 396.861C322.944 397.999 322.023 398.919 320.886 398.919H299.867C298.729 398.919 297.809 397.999 297.809 396.861C297.809 395.724 298.729 394.803 299.867 394.803H299.871Z" fill="#45A184"/>
<path d="M315.118 296.125C333.068 296.125 347.619 299.506 347.619 303.68V307.765C347.619 311.935 333.068 315.32 315.118 315.32C297.168 315.32 282.617 311.94 282.617 307.765V303.68C282.617 299.51 297.168 296.125 315.118 296.125Z" fill="url(#paint2_linear_162688_43507)"/>
<path opacity="0.1" d="M272.755 197.115C278.892 187.004 275.671 173.832 265.561 167.695C255.45 161.557 242.278 164.778 236.141 174.888C230.003 184.999 233.224 198.171 243.334 204.309C253.445 210.446 266.617 207.226 272.755 197.115Z" fill="white"/>
<path opacity="0.17" d="M267.919 179.427C267.148 179.427 266.43 178.931 266.186 178.154C265.424 175.717 263.763 173.722 261.501 172.54C259.24 171.353 256.654 171.122 254.217 171.885C253.26 172.183 252.24 171.65 251.942 170.694C251.644 169.737 252.177 168.717 253.134 168.419C256.496 167.367 260.066 167.692 263.185 169.326C266.304 170.96 268.601 173.713 269.653 177.076C269.95 178.032 269.418 179.052 268.461 179.35C268.281 179.404 268.1 179.432 267.919 179.432V179.427Z" fill="#50C6A1"/>
<path d="M246.801 161.526C233.283 165.746 225.751 180.126 229.975 193.643C234.195 207.161 248.575 214.694 262.092 210.469C275.61 206.249 283.143 191.869 278.918 178.352C274.698 164.834 260.319 157.301 246.801 161.526ZM260.833 206.443C249.541 209.968 237.531 203.677 234.006 192.384C230.481 181.091 236.772 169.081 248.065 165.556C259.357 162.031 271.368 168.323 274.892 179.616C278.417 190.908 272.126 202.918 260.833 206.443Z" fill="#D0DAED"/>
<path d="M263.979 208.981L259.719 210.312L265.779 229.712L270.04 228.381L263.979 208.981Z" fill="#D0DAED"/>
<path d="M278.779 263.888C276.062 264.737 273.169 263.22 272.32 260.503L263.005 230.683C262.553 229.239 263.357 227.704 264.801 227.257L269.423 225.813C270.867 225.362 272.401 226.165 272.848 227.609L282.164 257.429C283.012 260.147 281.496 263.04 278.779 263.888Z" fill="url(#paint3_linear_162688_43507)"/>
<path d="M280.582 250.803C280.582 250.803 270.987 244.886 268.089 241.826C265.196 238.766 263.968 237.376 264.713 236.726C265.458 236.076 273.559 239.646 274.34 239.041C275.121 238.436 274.439 236.942 275.319 236.27C276.2 235.593 281.426 240.982 282.667 240.571C283.909 240.16 282.022 249.846 280.578 250.803H280.582Z" fill="#FFAA9D"/>
<path d="M242.31 361.005L235.273 367.816L217.445 351.315L223.313 341.773L242.31 361.005Z" fill="#FFAA9D"/>
<path d="M236.301 366.818C236.301 366.818 231.39 372.969 230.469 372.979C229.544 372.988 208.963 350.718 209.098 350.001C209.234 349.283 218.22 350.055 218.22 350.055L236.305 366.818H236.301Z" fill="url(#paint4_linear_162688_43507)"/>
<path d="M222.215 340.776C222.215 340.776 242.828 362.323 243.622 362.323C244.416 362.323 342.781 286.801 342.781 286.801L301.087 268.305C301.087 268.305 248.14 282.86 222.219 340.776H222.215Z" fill="url(#paint5_linear_162688_43507)"/>
<path d="M315.587 347.234L319.076 356.383L296.888 366.276L290.43 357.128L315.587 347.234Z" fill="#FFAA9D"/>
<path d="M297.836 268.312C297.836 268.312 263.024 275.575 260.009 287.364C256.994 299.153 259.734 312.034 269.33 327.109C278.925 342.183 288.683 358.585 290.691 359.118C290.691 359.118 316.467 348.791 317.05 347.505C317.632 346.218 302.616 310.734 302.616 310.734C302.616 310.734 333.221 308.698 340.357 290.658L297.836 268.317V268.312Z" fill="url(#paint6_linear_162688_43507)"/>
<path d="M295.403 268.202C295.087 270.256 333.112 294.073 339.842 292.922C346.571 291.771 355.278 263.991 352.868 243.247C350.462 222.504 331.88 206.946 323.409 207.673C314.937 208.4 310.401 216.343 309.246 228.976C307.553 247.504 295.75 265.918 295.398 268.207L295.403 268.202Z" fill="url(#paint7_linear_162688_43507)"/>
<path d="M327.21 210.856C331.692 210.468 347.114 219.512 350.72 246.196C354.326 272.879 339.59 275.117 327.21 273.393C314.825 271.669 283.669 256.382 279.101 250.917C279.101 250.917 278.118 242.319 281.43 239.277C281.43 239.277 311.485 242.337 319.293 244.675C327.097 247.017 310.217 212.332 327.21 210.856Z" fill="url(#paint8_linear_162688_43507)"/>
<path d="M318.564 355.039C318.564 355.039 322.283 361.972 321.931 362.825C321.579 363.678 293 373.833 292.395 373.427C291.79 373.02 296.033 365.063 296.033 365.063L318.564 355.039Z" fill="url(#paint9_linear_162688_43507)"/>
<path d="M302.031 193.536L301.887 203.073L303.308 203.028C303.308 203.028 304.45 210.922 310.024 209.676C311.627 209.32 313.671 207.961 314.258 208.232C314.958 208.552 315.26 210.714 315.418 211.337C316.023 213.725 324.386 211.31 323.032 208.864C321.746 206.539 319.827 203.366 320.234 202.482C321.651 199.408 322.053 191.772 314.366 189.221C308.242 187.19 302.099 190.269 302.031 193.532V193.536Z" fill="#FFAA9D"/>
<path d="M323.029 208.859C321.743 206.534 319.825 203.361 320.231 202.477C320.231 202.477 317.004 207.441 314.025 208.191C314.021 208.191 314.016 208.195 314.012 208.195C314.107 208.191 314.197 208.195 314.26 208.222C314.96 208.543 315.262 210.705 315.42 211.327C316.025 213.715 324.388 211.3 323.034 208.854L323.029 208.859Z" fill="#FF9F91"/>
<path d="M314.928 198.207C318.521 197.593 316.287 205.595 320.245 205.329C324.203 205.062 326.961 196.41 324.054 189.739C321.148 183.069 315.628 183.439 310.361 184.35C305.098 185.262 298.644 187.641 298.648 191.621C298.657 201.199 309.995 193.165 310.744 196.045C311.322 198.274 312.216 204.715 309.905 204.864C307.594 205.013 305.243 203.108 303.419 203.596C302.368 203.875 299.479 216.441 307.034 216.86C314.509 217.276 316.4 210.677 314.825 205.293C313.326 200.17 313.177 198.504 314.928 198.207Z" fill="#14336A"/>
<defs>
<linearGradient id="paint0_linear_162688_43507" x1="138.452" y1="57.5033" x2="138.452" y2="225.253" gradientUnits="userSpaceOnUse">
<stop stop-color="#E9F3FC"/>
<stop offset="1" stop-color="white"/>
</linearGradient>
<linearGradient id="paint1_linear_162688_43507" x1="31.1964" y1="320.31" x2="43.211" y2="386.648" gradientUnits="userSpaceOnUse">
<stop stop-color="#3162DF"/>
<stop offset="0.96" stop-color="#173DB8"/>
</linearGradient>
<linearGradient id="paint2_linear_162688_43507" x1="314.455" y1="298.404" x2="316.481" y2="320.7" gradientUnits="userSpaceOnUse">
<stop stop-color="#58CFAA"/>
<stop offset="0.97" stop-color="#45A184"/>
</linearGradient>
<linearGradient id="paint3_linear_162688_43507" x1="266.357" y1="224.111" x2="275.843" y2="254.474" gradientUnits="userSpaceOnUse">
<stop stop-color="#58CFAA"/>
<stop offset="0.97" stop-color="#45A184"/>
</linearGradient>
<linearGradient id="paint4_linear_162688_43507" x1="224.67" y1="355.901" x2="220.248" y2="361.419" gradientUnits="userSpaceOnUse">
<stop stop-color="#14336D"/>
<stop offset="0.97" stop-color="#0E2253"/>
</linearGradient>
<linearGradient id="paint5_linear_162688_43507" x1="243.875" y1="335.329" x2="274.76" y2="310.451" gradientUnits="userSpaceOnUse">
<stop stop-color="#14336D"/>
<stop offset="0.97" stop-color="#0E2253"/>
</linearGradient>
<linearGradient id="paint6_linear_162688_43507" x1="288.128" y1="311.488" x2="342.325" y2="331.148" gradientUnits="userSpaceOnUse">
<stop stop-color="#14336D"/>
<stop offset="0.97" stop-color="#0E2253"/>
</linearGradient>
<linearGradient id="paint7_linear_162688_43507" x1="307.02" y1="220.653" x2="334.281" y2="271.713" gradientUnits="userSpaceOnUse">
<stop stop-color="#3162DF"/>
<stop offset="0.96" stop-color="#173DB8"/>
</linearGradient>
<linearGradient id="paint8_linear_162688_43507" x1="315.105" y1="245.343" x2="346.094" y2="310.674" gradientUnits="userSpaceOnUse">
<stop stop-color="#3162DF"/>
<stop offset="0.96" stop-color="#173DB8"/>
</linearGradient>
<linearGradient id="paint9_linear_162688_43507" x1="303.999" y1="361.471" x2="307.325" y2="367.708" gradientUnits="userSpaceOnUse">
<stop stop-color="#14336D"/>
<stop offset="0.97" stop-color="#0E2253"/>
</linearGradient>
</defs>
</svg>
