<svg width="1440" height="895" viewBox="0 0 1440 895" fill="none" xmlns="http://www.w3.org/2000/svg">
<path opacity="0.2" d="M822.922 894.097C1034.45 894.097 1205.92 888.993 1205.92 882.697C1205.92 876.401 1034.45 871.297 822.922 871.297C611.397 871.297 439.922 876.401 439.922 882.697C439.922 888.993 611.397 894.097 822.922 894.097Z" fill="#0B2252"/>
<path d="M1055.18 44.01C1060.54 38.65 1067.95 35.33 1076.14 35.33H1105.62C1110.01 15.13 1127.98 0 1149.5 0C1171.02 0 1188.99 15.13 1193.38 35.33H1201.3C1209.49 35.33 1216.9 38.65 1222.26 44.01C1227.62 49.37 1230.94 56.78 1230.94 64.97C1230.94 74.02 1226.88 82.13 1220.48 87.57C1215.31 91.96 1208.61 94.61 1201.3 94.61H1076.15C1067.96 94.61 1060.55 91.29 1055.19 85.93C1049.83 80.57 1046.51 73.16 1046.51 64.97C1046.51 56.78 1049.83 49.37 1055.19 44.01H1055.18Z" fill="#E9F3FC"/>
<path d="M694.812 88.6569C689.772 83.6169 682.812 80.4969 675.122 80.4969H647.422C643.292 61.5169 626.412 47.2969 606.192 47.2969C585.972 47.2969 569.092 61.5169 564.962 80.4969H557.522C549.832 80.4969 542.872 83.6169 537.832 88.6569C532.792 93.6969 529.672 100.657 529.672 108.347C529.672 116.857 533.482 124.467 539.502 129.577C544.362 133.707 550.652 136.197 557.532 136.197H675.122C682.812 136.197 689.772 133.077 694.812 128.037C699.852 122.997 702.972 116.037 702.972 108.347C702.972 100.657 699.852 93.6969 694.812 88.6569Z" fill="#E9F3FC"/>
<path d="M1459.88 466.113V623.813C1316.51 598.993 1123.8 576.293 898.391 576.293C400.811 576.293 10.5511 686.873 10.5511 686.873C-18.4089 624.963 13.6811 446.653 89.2111 404.913C164.751 363.173 230.341 446.653 289.971 416.843C349.601 387.023 293.801 123.443 385.381 106.483C476.951 89.5233 534.611 259.103 646.531 259.103C758.451 259.103 741.501 89.5233 872.381 82.7333C1003.25 75.9533 999.801 256.353 1078.52 256.353C1157.24 256.353 1125.33 184.013 1248.74 181.883C1372.16 179.753 1406.2 437.213 1459.05 465.673C1459.33 465.823 1459.6 465.973 1459.88 466.103V466.113Z" fill="url(#paint0_linear_162623_42141)"/>
<path d="M1124.63 269.859H553.768C533.041 269.859 516.238 286.662 516.238 307.389V645.719C516.238 666.447 533.041 683.249 553.768 683.249H1124.63C1145.36 683.249 1162.16 666.447 1162.16 645.719V307.389C1162.16 286.662 1145.36 269.859 1124.63 269.859Z" fill="white"/>
<path d="M1132.13 686.848H546.259C527.719 686.848 512.629 671.758 512.629 653.218V299.888C512.629 281.348 527.709 266.258 546.259 266.258H1132.13C1150.67 266.258 1165.76 281.338 1165.76 299.888V653.228C1165.76 671.768 1150.68 686.858 1132.13 686.858V686.848ZM546.259 273.458C531.689 273.458 519.829 285.318 519.829 299.888V653.228C519.829 667.798 531.679 679.658 546.259 679.658H1132.13C1146.7 679.658 1158.56 667.808 1158.56 653.228V299.888C1158.56 285.318 1146.71 273.458 1132.13 273.458H546.259Z" fill="#E3ECF5"/>
<path d="M782.962 391.385C797.102 376.335 816.512 368.805 841.192 368.805C864.022 368.805 882.302 375.245 896.032 388.125C909.762 401.005 916.632 417.455 916.632 437.495C916.632 449.625 914.142 459.475 909.162 467.025C904.182 474.575 893.972 485.685 878.552 500.335C867.332 510.985 860.022 519.995 856.642 527.375C853.252 534.755 851.562 545.665 851.562 560.085H821.002C821.002 543.715 822.952 530.525 826.842 520.505C830.732 510.495 839.392 499.015 852.822 486.075L866.832 472.515C871.032 468.625 874.442 464.565 877.062 460.325C881.812 452.885 884.192 445.155 884.192 437.145C884.192 425.925 880.772 416.195 873.932 407.955C867.092 399.715 855.792 395.595 840.012 395.595C820.492 395.595 806.992 402.695 799.512 416.885C795.302 424.785 792.912 436.175 792.322 451.055H761.762C761.762 426.325 768.832 406.445 782.972 391.385H782.962ZM820.312 588.585H854.482V624.295H820.312V588.585Z" fill="#58CFAA"/>
<path d="M1104.38 325.684H478.44C476.45 325.684 474.84 324.074 474.84 322.084C474.84 320.094 476.45 318.484 478.44 318.484H1104.38C1106.37 318.484 1107.98 320.094 1107.98 322.084C1107.98 324.074 1106.37 325.684 1104.38 325.684Z" fill="#E3ECF5"/>
<path d="M557.583 298.763C558.227 294.8 555.535 291.065 551.572 290.422C547.609 289.779 543.875 292.47 543.231 296.433C542.588 300.397 545.279 304.131 549.242 304.774C553.206 305.418 556.94 302.726 557.583 298.763Z" fill="#E3ECF5"/>
<path d="M586.743 299.218C587.665 295.31 585.245 291.394 581.337 290.472C577.43 289.55 573.514 291.97 572.592 295.878C571.67 299.785 574.09 303.701 577.997 304.623C581.905 305.545 585.821 303.125 586.743 299.218Z" fill="#E3ECF5"/>
<path d="M616.267 298.763C616.91 294.8 614.219 291.065 610.256 290.422C606.293 289.779 602.558 292.47 601.915 296.433C601.272 300.397 603.963 304.131 607.926 304.774C611.889 305.418 615.624 302.726 616.267 298.763Z" fill="#E3ECF5"/>
<path d="M341.533 621.417C327.193 620.987 311.623 615.947 311.963 592.907C312.303 569.867 329.033 566.277 330.733 549.047C332.443 531.807 332.522 515.767 341.522 515.597C350.533 515.427 344.833 522.797 349.022 530.787C353.212 538.777 361.342 549.007 359.772 563.947C358.202 578.887 368.833 584.607 368.272 596.817C367.712 609.027 360.082 621.987 341.522 621.427L341.533 621.417Z" fill="#DAEEFF"/>
<path d="M346.832 562.587C346.582 562.357 346.192 562.367 345.952 562.617C345.712 562.867 345.722 563.257 345.972 563.497C346.012 563.537 349.712 567.257 349.332 579.997C349.002 591.017 343.292 608.057 341.482 613.207C339.782 609.197 337.592 604.767 335.752 601.037C334.502 598.517 333.432 596.347 332.842 594.977C330.712 589.967 333.952 579.437 333.992 579.337C334.092 579.007 333.912 578.657 333.582 578.557C333.252 578.457 332.902 578.637 332.802 578.967C332.662 579.417 329.392 590.037 331.702 595.477C332.302 596.887 333.382 599.067 334.642 601.607C338.002 608.397 343.092 618.657 343.012 622.647C342.902 628.187 342.232 636.127 342.232 636.207C342.202 636.547 342.462 636.857 342.802 636.887C342.822 636.887 342.842 636.887 342.852 636.887C343.172 636.887 343.452 636.637 343.472 636.317C343.472 636.237 344.152 628.247 344.262 622.677C344.302 620.887 343.452 618.117 342.202 614.957C343.032 612.687 350.222 592.597 350.592 580.047C350.992 566.627 347.012 562.757 346.842 562.597L346.832 562.587Z" fill="#6AC1FF"/>
<path d="M1405.76 561.881C1393.53 561.511 1380.26 557.221 1380.55 537.571C1380.84 517.931 1395.1 514.871 1396.56 500.171C1398.01 485.471 1398.08 471.801 1405.76 471.651C1413.44 471.501 1408.58 477.791 1412.15 484.601C1415.73 491.421 1422.65 500.131 1421.31 512.871C1419.97 525.611 1429.03 530.481 1428.56 540.891C1428.08 551.301 1421.58 562.351 1405.76 561.871V561.881Z" fill="#DAEEFF"/>
<path d="M1410.29 511.722C1410.07 511.522 1409.74 511.532 1409.54 511.742C1409.34 511.952 1409.35 512.292 1409.56 512.492C1409.59 512.522 1412.75 515.692 1412.42 526.562C1412.14 535.952 1407.27 550.482 1405.73 554.872C1404.28 551.452 1402.42 547.682 1400.84 544.502C1399.78 542.352 1398.86 540.502 1398.36 539.332C1396.54 535.062 1399.31 526.082 1399.34 525.992C1399.43 525.712 1399.27 525.412 1398.99 525.322C1398.71 525.232 1398.41 525.392 1398.32 525.672C1398.2 526.052 1395.41 535.112 1397.38 539.742C1397.89 540.942 1398.81 542.802 1399.88 544.972C1402.75 550.762 1407.08 559.512 1407.01 562.912C1406.92 567.632 1406.35 574.402 1406.34 574.472C1406.32 574.762 1406.53 575.022 1406.83 575.052C1406.85 575.052 1406.86 575.052 1406.88 575.052C1407.15 575.052 1407.39 574.842 1407.41 574.562C1407.41 574.492 1407.99 567.682 1408.08 562.932C1408.11 561.412 1407.39 559.042 1406.33 556.352C1407.03 554.422 1413.16 537.282 1413.48 526.592C1413.82 515.152 1410.43 511.852 1410.28 511.712L1410.29 511.722Z" fill="#6AC1FF"/>
<path d="M450.429 525.663C442.019 525.413 432.889 522.453 433.089 508.943C433.289 495.433 443.099 493.333 444.099 483.223C445.099 473.113 445.149 463.703 450.429 463.603C455.709 463.503 452.369 467.823 454.829 472.513C457.289 477.203 462.049 483.193 461.129 491.953C460.209 500.713 466.439 504.063 466.109 511.223C465.779 518.383 461.309 525.983 450.429 525.653V525.663Z" fill="#DAEEFF"/>
<path d="M453.538 491.162C453.388 491.022 453.158 491.032 453.018 491.182C452.878 491.332 452.888 491.562 453.028 491.702C453.048 491.722 455.218 493.902 454.998 501.382C454.808 507.842 451.458 517.832 450.398 520.852C449.408 518.502 448.118 515.902 447.038 513.722C446.308 512.242 445.678 510.972 445.328 510.162C444.078 507.222 445.978 501.052 445.998 500.992C446.058 500.802 445.948 500.592 445.758 500.532C445.568 500.472 445.358 500.582 445.298 500.772C445.218 501.032 443.298 507.262 444.648 510.452C444.998 511.272 445.638 512.562 446.368 514.042C448.338 518.022 451.318 524.042 451.278 526.382C451.218 529.632 450.818 534.292 450.818 534.332C450.798 534.532 450.948 534.712 451.148 534.732H451.178C451.368 534.732 451.528 534.592 451.548 534.402C451.548 534.352 451.948 529.672 452.008 526.402C452.028 525.352 451.538 523.722 450.798 521.872C451.278 520.542 455.498 508.762 455.718 501.402C455.948 493.532 453.618 491.262 453.518 491.172L453.538 491.162Z" fill="#6AC1FF"/>
<path d="M1274.59 661.512C1259.89 661.072 1243.93 655.902 1244.28 632.292C1244.63 608.672 1261.78 605.002 1263.53 587.332C1265.28 569.662 1265.36 553.212 1274.59 553.042C1283.82 552.872 1277.98 560.422 1282.28 568.612C1286.58 576.802 1294.91 587.282 1293.3 602.602C1291.69 617.912 1302.59 623.772 1302.01 636.292C1301.44 648.812 1293.62 662.092 1274.59 661.522V661.512Z" fill="#DAEEFF"/>
<path d="M1280.03 601.212C1279.77 600.972 1279.37 600.982 1279.13 601.242C1278.89 601.502 1278.9 601.902 1279.15 602.152C1279.19 602.192 1282.98 606.002 1282.59 619.072C1282.25 630.362 1276.4 647.832 1274.55 653.112C1272.81 648.992 1270.57 644.462 1268.68 640.642C1267.4 638.062 1266.3 635.832 1265.7 634.422C1263.52 629.282 1266.84 618.492 1266.87 618.392C1266.98 618.052 1266.79 617.692 1266.45 617.592C1266.11 617.482 1265.75 617.672 1265.65 618.012C1265.51 618.472 1262.15 629.362 1264.52 634.932C1265.13 636.372 1266.24 638.612 1267.53 641.212C1270.98 648.172 1276.19 658.692 1276.11 662.782C1276 668.452 1275.31 676.602 1275.31 676.682C1275.28 677.032 1275.54 677.342 1275.9 677.372C1275.92 677.372 1275.94 677.372 1275.95 677.372C1276.28 677.372 1276.56 677.122 1276.59 676.782C1276.59 676.702 1277.28 668.512 1277.4 662.802C1277.44 660.972 1276.57 658.122 1275.29 654.892C1276.14 652.572 1283.51 631.972 1283.89 619.112C1284.3 605.352 1280.22 601.382 1280.04 601.222L1280.03 601.212Z" fill="#6AC1FF"/>
<path d="M474.633 680.872C466.283 683.052 434.643 681.772 440.683 666.162C447.403 648.802 465.343 663.982 473.033 673.602C470.113 658.252 469.713 642.612 469.763 634.242C464.073 627.402 452.053 583.982 475.733 586.132C506.753 588.952 479.273 630.052 472.123 634.722C472.123 644.742 472.793 664.582 477.333 681.802C478.293 670.862 489.213 639.732 503.713 650.712C524.753 666.632 484.493 685.852 478.393 685.522C480.313 691.802 482.793 697.592 486.033 702.222C488.363 705.552 490.943 709.412 493.623 713.612C493.673 713.662 493.723 713.712 493.763 713.762C495.113 702.242 505.863 672.652 520.063 683.402C539.703 698.262 505.923 716.002 496.383 718.022C502.303 727.652 508.403 738.652 513.103 749.252C513.763 738.842 534.183 717.572 542.293 729.742C546.813 736.522 522.883 758.622 514.993 753.672C519.493 764.662 522.203 774.932 521.263 782.432C520.913 785.192 520.413 788.452 519.833 791.992C525.423 785.812 545.623 765.082 551.633 781.122C556.623 794.422 539.953 802.142 532.953 802.142C527.473 802.142 521.653 796.952 519.383 794.692C519.063 796.602 518.723 798.572 518.373 800.582C515.553 816.952 512.173 836.652 513.163 848.502C517.933 839.252 539.243 800.722 551.633 825.492C557.983 838.192 539.953 848.842 532.953 851.182C527.203 853.102 516.923 851.372 513.413 850.692C513.613 852.032 513.863 853.262 514.213 854.312C518.783 868.002 527.993 881.912 528.093 882.052C528.453 882.592 528.303 883.312 527.773 883.672C527.573 883.802 527.353 883.872 527.123 883.872C526.743 883.872 526.373 883.692 526.153 883.352C526.073 883.232 519.223 872.882 514.313 861.142C508.813 860.452 487.663 857.562 481.583 853.512C474.573 848.842 462.033 833.492 472.243 827.822C488.043 819.042 504.603 842.372 511.853 854.502C509.153 845.452 511.543 827.342 514.353 810.332C508.703 812.022 490.313 808.742 483.913 804.472C476.903 799.802 464.833 787.702 472.233 781.122C490.793 764.622 510.413 799.572 514.743 807.962C515.183 805.312 515.633 802.702 516.073 800.182C517.243 793.402 518.343 786.992 518.953 782.142C519.823 775.182 517.233 765.172 512.603 753.942C508.913 755.112 496.443 758.552 482.743 756.602C466.393 754.262 458.103 741.542 464.063 735.582C474.193 725.452 504.143 746.442 511.873 752.172C507.163 741.122 500.553 729.012 493.313 717.462C483.783 719.672 445.833 718.862 450.973 703.792C456.103 688.742 475.533 698.862 486.953 707.692C486.013 706.302 485.073 704.922 484.123 703.572C479.803 697.402 476.773 689.382 474.643 680.882L474.633 680.872Z" fill="url(#paint1_linear_162623_42141)"/>
<path d="M542.273 825.492C561.873 817.652 566.663 847.653 567.703 857.493C572.023 843.143 573.853 825.683 571.903 811.473C568.923 811.402 557.363 810.852 549.283 806.812C539.943 802.142 534.183 783.442 542.273 781.122C555.873 777.232 567.853 800.823 571.493 808.853C571.173 807.043 570.793 805.282 570.333 803.612C567.353 792.682 565.193 778.602 564.263 764.762C560.573 764.692 550.293 764.332 544.613 762.442C537.603 760.102 525.743 741.812 535.273 739.092C548.403 735.342 560.013 754.172 564.083 761.742C563.293 747.312 563.893 733.412 566.343 723.942C565.293 719.782 563.293 710.952 563.293 704.062C563.293 694.722 574.133 676.332 584.313 685.382C602.903 701.912 575.043 721.222 568.363 725.462C566.103 734.782 565.603 748.242 566.413 762.212C570.583 751.712 587.453 713.902 607.663 732.092C615.423 739.082 598.323 755.442 586.643 760.112C577.353 763.822 569.433 764.613 566.573 764.783C567.513 778.382 569.653 792.232 572.593 803.012C573.123 804.962 573.553 807.032 573.903 809.172C578.333 800.242 598.933 762.263 621.673 778.793C631.113 785.663 612.333 802.142 602.993 806.812C594.973 810.822 578.653 811.032 574.193 811.012C576.133 825.172 574.383 842.502 570.173 857.042C577.033 846.662 597.093 820.012 612.333 837.172C621.383 847.352 597.963 855.972 591.313 858.192C585.463 860.142 572.943 860.723 568.973 860.863C565.653 870.893 561.133 879.213 555.863 883.603C555.643 883.783 555.383 883.873 555.113 883.873C554.773 883.873 554.443 883.732 554.213 883.452C553.803 882.962 553.863 882.222 554.363 881.812C559.393 877.622 563.703 869.682 566.883 860.082C563.843 858.812 555.003 855.002 549.273 851.182C542.263 846.512 531.423 829.832 542.263 825.492H542.273Z" fill="#F2BE3C"/>
<path d="M492.072 883.871H598.322C598.972 883.871 599.492 883.351 599.492 882.701C599.492 882.051 598.972 881.531 598.322 881.531H492.072C491.422 881.531 490.902 882.051 490.902 882.701C490.902 883.351 491.422 883.871 492.072 883.871Z" fill="#14336A"/>
<path d="M454.701 883.871H479.221C479.871 883.871 480.391 883.351 480.391 882.701C480.391 882.051 479.871 881.531 479.221 881.531H454.701C454.051 881.531 453.531 882.051 453.531 882.701C453.531 883.351 454.051 883.871 454.701 883.871Z" fill="#14336A"/>
<path d="M1087.59 874.74H1106.31V695.07H1115.43V766.03H1129.59V695.07H1138.71V775.16H1115.43V874.74H1134.15C1136.67 874.74 1138.71 876.78 1138.71 879.3C1138.71 881.82 1136.67 883.86 1134.15 883.86H1087.58C1085.06 883.86 1083.02 881.82 1083.02 879.3C1083.02 876.78 1085.06 874.74 1087.58 874.74H1087.59Z" fill="#45A184"/>
<path d="M1121.37 656.102C1161.14 656.102 1193.38 663.592 1193.38 672.842V681.892C1193.38 691.132 1161.14 698.632 1121.37 698.632C1081.6 698.632 1049.36 691.142 1049.36 681.892V672.842C1049.36 663.602 1081.6 656.102 1121.37 656.102Z" fill="url(#paint2_linear_162623_42141)"/>
<path opacity="0.1" d="M1027.51 436.747C1041.11 414.346 1033.97 385.162 1011.57 371.563C989.171 357.964 959.987 365.1 946.389 387.501C932.79 409.903 939.926 439.087 962.327 452.685C984.728 466.284 1013.91 459.148 1027.51 436.747Z" fill="white"/>
<path opacity="0.17" d="M1016.79 397.577C1015.08 397.577 1013.49 396.477 1012.95 394.757C1011.26 389.357 1007.58 384.937 1002.57 382.317C997.564 379.687 991.834 379.177 986.434 380.867C984.314 381.527 982.054 380.347 981.394 378.227C980.734 376.107 981.914 373.847 984.034 373.187C991.484 370.857 999.394 371.577 1006.3 375.197C1013.21 378.817 1018.3 384.917 1020.63 392.367C1021.29 394.487 1020.11 396.747 1017.99 397.407C1017.59 397.527 1017.19 397.587 1016.79 397.587V397.577Z" fill="#50C6A1"/>
<path d="M970.011 357.899C940.061 367.249 923.371 399.109 932.731 429.059C942.081 459.009 973.941 475.699 1003.89 466.339C1033.84 456.989 1050.53 425.129 1041.17 395.179C1031.82 365.229 999.961 348.539 970.011 357.899ZM1001.1 457.419C976.081 465.229 949.471 451.289 941.661 426.269C933.851 401.249 947.791 374.639 972.811 366.829C997.831 359.019 1024.44 372.959 1032.25 397.979C1040.06 422.999 1026.12 449.609 1001.1 457.419Z" fill="#D0DAED"/>
<path d="M1008.07 463.043L998.629 465.992L1012.06 508.973L1021.5 506.024L1008.07 463.043Z" fill="#D0DAED"/>
<path d="M1040.86 584.709C1034.84 586.589 1028.43 583.229 1026.55 577.209L1005.91 511.139C1004.91 507.939 1006.69 504.539 1009.89 503.549L1020.13 500.349C1023.33 499.349 1026.73 501.129 1027.72 504.329L1048.36 570.399C1050.24 576.419 1046.88 582.829 1040.86 584.709Z" fill="url(#paint3_linear_162623_42141)"/>
<path d="M1044.85 555.69C1044.85 555.69 1023.59 542.58 1017.17 535.8C1010.76 529.02 1008.04 525.94 1009.69 524.5C1011.34 523.06 1029.29 530.97 1031.02 529.63C1032.75 528.29 1031.24 524.98 1033.19 523.49C1035.14 521.99 1046.72 533.93 1049.47 533.02C1052.22 532.11 1048.04 553.57 1044.84 555.69H1044.85Z" fill="#FFAA9D"/>
<path d="M960.051 799.86L944.461 814.95L904.961 778.39L917.961 757.25L960.051 799.86Z" fill="#FFAA9D"/>
<path d="M946.74 812.726C946.74 812.726 935.86 826.356 933.82 826.376C931.77 826.396 886.17 777.056 886.47 775.466C886.77 773.876 906.68 775.586 906.68 775.586L946.75 812.726H946.74Z" fill="url(#paint4_linear_162623_42141)"/>
<path d="M915.531 755.039C915.531 755.039 961.201 802.779 962.961 802.779C964.721 802.779 1182.66 635.449 1182.66 635.449L1090.28 594.469C1090.28 594.469 972.971 626.719 915.541 755.039H915.531Z" fill="url(#paint5_linear_162623_42141)"/>
<path d="M1122.41 769.352L1130.14 789.622L1080.98 811.542L1066.67 791.272L1122.41 769.352Z" fill="#FFAA9D"/>
<path d="M1083.08 594.477C1083.08 594.477 1005.95 610.567 999.27 636.687C992.59 662.807 998.66 691.347 1019.92 724.747C1041.18 758.147 1062.8 794.487 1067.25 795.667C1067.25 795.667 1124.36 772.787 1125.65 769.937C1126.94 767.087 1093.67 688.467 1093.67 688.467C1093.67 688.467 1161.48 683.957 1177.29 643.987L1083.08 594.487V594.477Z" fill="url(#paint6_linear_162623_42141)"/>
<path d="M1077.69 594.242C1076.99 598.792 1161.24 651.562 1176.15 649.012C1191.06 646.462 1210.35 584.912 1205.01 538.952C1199.68 492.992 1158.51 458.522 1139.74 460.132C1120.97 461.742 1110.92 479.342 1108.36 507.332C1104.61 548.382 1078.46 589.182 1077.68 594.252L1077.69 594.242Z" fill="url(#paint7_linear_162623_42141)"/>
<path d="M1148.16 467.19C1158.09 466.33 1192.26 486.37 1200.25 545.49C1208.24 604.61 1175.59 609.57 1148.16 605.75C1120.72 601.93 1051.69 568.06 1041.57 555.95C1041.57 555.95 1039.39 536.9 1046.73 530.16C1046.73 530.16 1113.32 536.94 1130.62 542.12C1147.91 547.31 1110.51 470.46 1148.16 467.19Z" fill="url(#paint8_linear_162623_42141)"/>
<path d="M1129 786.648C1129 786.648 1137.24 802.008 1136.46 803.898C1135.68 805.788 1072.36 828.288 1071.02 827.388C1069.68 826.488 1079.08 808.858 1079.08 808.858L1129 786.648Z" fill="url(#paint9_linear_162623_42141)"/>
<path d="M1092.37 428.792L1092.05 449.922L1095.2 449.822C1095.2 449.822 1097.73 467.312 1110.08 464.552C1113.63 463.762 1118.16 460.752 1119.46 461.352C1121.01 462.062 1121.68 466.852 1122.03 468.232C1123.37 473.522 1141.9 468.172 1138.9 462.752C1136.05 457.602 1131.8 450.572 1132.7 448.612C1135.84 441.802 1136.73 424.882 1119.7 419.232C1106.13 414.732 1092.52 421.552 1092.37 428.782V428.792Z" fill="#FFAA9D"/>
<path d="M1138.9 462.749C1136.05 457.599 1131.8 450.569 1132.7 448.609C1132.7 448.609 1125.55 459.609 1118.95 461.269C1118.94 461.269 1118.93 461.279 1118.92 461.279C1119.13 461.269 1119.33 461.279 1119.47 461.339C1121.02 462.049 1121.69 466.839 1122.04 468.219C1123.38 473.509 1141.91 468.159 1138.91 462.739L1138.9 462.749Z" fill="#FF9F91"/>
<path d="M1120.95 439.149C1128.91 437.789 1123.96 455.519 1132.73 454.929C1141.5 454.339 1147.61 435.169 1141.17 420.389C1134.73 405.609 1122.5 406.429 1110.83 408.449C1099.17 410.469 1084.87 415.739 1084.88 424.559C1084.9 445.779 1110.02 427.979 1111.68 434.359C1112.96 439.299 1114.94 453.569 1109.82 453.899C1104.7 454.229 1099.49 450.009 1095.45 451.089C1093.12 451.709 1086.72 479.549 1103.46 480.479C1120.02 481.399 1124.21 466.779 1120.72 454.849C1117.4 443.499 1117.07 439.809 1120.95 439.149Z" fill="#14336A"/>
<defs>
<linearGradient id="paint0_linear_162623_42141" x1="729.941" y1="127.403" x2="729.941" y2="499.073" gradientUnits="userSpaceOnUse">
<stop stop-color="#E9F3FC"/>
<stop offset="1" stop-color="white"/>
</linearGradient>
<linearGradient id="paint1_linear_162623_42141" x1="492.303" y1="709.692" x2="518.923" y2="856.672" gradientUnits="userSpaceOnUse">
<stop stop-color="#3162DF"/>
<stop offset="0.96" stop-color="#173DB8"/>
</linearGradient>
<linearGradient id="paint2_linear_162623_42141" x1="1119.9" y1="661.152" x2="1124.39" y2="710.552" gradientUnits="userSpaceOnUse">
<stop stop-color="#58CFAA"/>
<stop offset="0.97" stop-color="#45A184"/>
</linearGradient>
<linearGradient id="paint3_linear_162623_42141" x1="1013.34" y1="496.577" x2="1034.36" y2="563.85" gradientUnits="userSpaceOnUse">
<stop stop-color="#58CFAA"/>
<stop offset="0.97" stop-color="#45A184"/>
</linearGradient>
<linearGradient id="paint4_linear_162623_42141" x1="920.971" y1="788.539" x2="911.174" y2="800.765" gradientUnits="userSpaceOnUse">
<stop stop-color="#14336D"/>
<stop offset="0.97" stop-color="#0E2253"/>
</linearGradient>
<linearGradient id="paint5_linear_162623_42141" x1="963.521" y1="742.969" x2="1031.95" y2="687.849" gradientUnits="userSpaceOnUse">
<stop stop-color="#14336D"/>
<stop offset="0.97" stop-color="#0E2253"/>
</linearGradient>
<linearGradient id="paint6_linear_162623_42141" x1="1061.57" y1="690.137" x2="1181.65" y2="733.697" gradientUnits="userSpaceOnUse">
<stop stop-color="#14336D"/>
<stop offset="0.97" stop-color="#0E2253"/>
</linearGradient>
<linearGradient id="paint7_linear_162623_42141" x1="1103.43" y1="488.892" x2="1163.83" y2="602.022" gradientUnits="userSpaceOnUse">
<stop stop-color="#3162DF"/>
<stop offset="0.96" stop-color="#173DB8"/>
</linearGradient>
<linearGradient id="paint8_linear_162623_42141" x1="1121.34" y1="543.6" x2="1190" y2="688.35" gradientUnits="userSpaceOnUse">
<stop stop-color="#3162DF"/>
<stop offset="0.96" stop-color="#173DB8"/>
</linearGradient>
<linearGradient id="paint9_linear_162623_42141" x1="1096.73" y1="800.898" x2="1104.1" y2="814.718" gradientUnits="userSpaceOnUse">
<stop stop-color="#14336D"/>
<stop offset="0.97" stop-color="#0E2253"/>
</linearGradient>
</defs>
</svg>
