<svg width="1440" height="190" fill="none" xmlns="http://www.w3.org/2000/svg"><path fill-rule="evenodd" clip-rule="evenodd" d="M0 84.788s283.196 64.293 548.438 64.293c265.241 0 401.309-87.448 558.002-106.21C1263.13 24.106 1440 84.787 1440 84.787V190H0V84.788Z" fill="url(#a)"/><path opacity=".1" fill-rule="evenodd" clip-rule="evenodd" d="M554.653 173.883C289.456 173.883.121 53.377.121 53.377v69.168s283.148 63.02 548.345 63.02c166.343 0 281.874-33.724 383.551-63.404 60.425-17.638 115.953-33.848 174.353-40.704 156.67-18.391 333.51 41.088 333.51 41.088V53.377s-165.03-68.436-321.7-50.326c-62.81 7.261-123.219 36.164-190.144 68.187-99.985 47.841-214.52 102.645-373.383 102.645Z" fill="#fff"/><defs><linearGradient id="a" x1="698.5" y1="-58.879" x2="658.446" y2="478.595" gradientUnits="userSpaceOnUse"><stop stop-color="#499FB6"/><stop offset="1" stop-color="#11998E"/></linearGradient></defs></svg>